<svg width="40" height="40" viewBox="0 0 40 40" fill="none" xmlns="http://www.w3.org/2000/svg">
<path d="M3.33398 15.8342C3.33402 13.9795 3.89664 12.1685 4.94754 10.6403C5.99844 9.11212 7.48818 7.93864 9.22 7.27488C10.9518 6.61111 12.8442 6.48829 14.6473 6.92262C16.4504 7.35695 18.0794 8.32801 19.319 9.70755C19.4063 9.8009 19.5119 9.87533 19.6291 9.92621C19.7464 9.9771 19.8728 10.0034 20.0007 10.0034C20.1285 10.0034 20.2549 9.9771 20.3722 9.92621C20.4895 9.87533 20.595 9.8009 20.6823 9.70755C21.9181 8.31905 23.5474 7.33983 25.3534 6.90022C27.1594 6.46061 29.0565 6.58146 30.7921 7.24669C32.5277 7.91191 34.0196 9.08997 35.0692 10.6241C36.1187 12.1581 36.6762 13.9755 36.6673 15.8342C36.6673 19.6509 34.1673 22.5009 31.6673 25.0009L22.514 33.8559C22.2034 34.2126 21.8205 34.4991 21.3907 34.6964C20.9609 34.8937 20.4941 34.9973 20.0211 35.0003C19.5482 35.0033 19.0801 34.9056 18.6478 34.7138C18.2155 34.5219 17.829 34.2403 17.514 33.8875L8.33398 25.0009C5.83398 22.5009 3.33398 19.6675 3.33398 15.8342Z" stroke="white" stroke-width="2" stroke-linecap="round" stroke-linejoin="round"/>
</svg>
